#N canvas 0 48 1024 694 10;
#X obj 234 309 dac~;
#X obj 251 204 osc~ 440;
#X obj 572 145 netreceive 3000;
#X obj 585 349 s tone;
#X obj 218 90 r tone;
#X obj 618 220 route tone volume;
#X obj 695 315 s volume;
#X connect 1 0 0 0;
#X connect 2 0 5 0;
#X connect 4 0 1 0;
#X connect 5 0 3 0;
#X connect 5 1 6 0;
